<mxfile host="app.diagrams.net" modified="2023-06-16T12:09:28.713Z" agent="Mozilla/5.0 (Windows NT 10.0; Win64; x64) AppleWebKit/537.36 (KHTML, like Gecko) Chrome/114.0.0.0 Safari/537.36" version="21.4.0" etag="QdvvbaGi0LoVfxtiu36y" type="github">
  <diagram name="Page-1" id="Pzhio6Mn_-6iHG2-B5zf">
    <mxGraphModel>
      <root>
        <mxCell id="0" />
        <mxCell id="1" parent="0" />
      </root>
    </mxGraphModel>
  </diagram>
</mxfile>
